<?xml version="1.0" encoding="UTF-8" standalone="no"?>
<!DOCTYPE svg PUBLIC "-//W3C//DTD SVG 1.1//EN"
 "http://www.w3.org/Graphics/SVG/1.1/DTD/svg11.dtd">
<!-- Generated by graphviz version 2.38.0 (20140413.2041)
 -->
<!-- Title: %3 Pages: 1 -->
<svg width="842pt" height="521pt"
 viewBox="0.00 0.00 842.00 521.00" xmlns="http://www.w3.org/2000/svg" xmlns:xlink="http://www.w3.org/1999/xlink">
<g id="graph0" class="graph" transform="scale(1 1) rotate(0) translate(4 517)">
<title>%3</title>
<polygon fill="white" stroke="none" points="-4,4 -4,-517 838,-517 838,4 -4,4"/>
<!-- greeting -->
<g id="node1" class="node"><title>greeting</title>
<path fill="#deebff" stroke="#deebff" d="M509.5,-432C509.5,-432 324.5,-432 324.5,-432 318.5,-432 312.5,-426 312.5,-420 312.5,-420 312.5,-399 312.5,-399 312.5,-393 318.5,-387 324.5,-387 324.5,-387 509.5,-387 509.5,-387 515.5,-387 521.5,-393 521.5,-399 521.5,-399 521.5,-420 521.5,-420 521.5,-426 515.5,-432 509.5,-432"/>
<text text-anchor="start" x="389.5" y="-417.8" font-family="Times New Roman,serif" font-weight="bold" font-size="14.00">Greeting</text>
<text text-anchor="start" x="320.5" y="-393.8" font-family="Times New Roman,serif" font-size="9.00">Welcome to your launchpad for all things Google IO?</text>
</g>
<!-- pre&#45;io -->
<g id="node2" class="node"><title>pre&#45;io</title>
<path fill="#deebff" stroke="#deebff" d="M248,-351C248,-351 12,-351 12,-351 6,-351 0,-345 0,-339 0,-339 0,-318 0,-318 0,-312 6,-306 12,-306 12,-306 248,-306 248,-306 254,-306 260,-312 260,-318 260,-318 260,-339 260,-339 260,-345 254,-351 248,-351"/>
<text text-anchor="start" x="87.5" y="-336.8" font-family="Times New Roman,serif" font-weight="bold" font-size="14.00">Pre I/O Meny</text>
<text text-anchor="start" x="8" y="-312.8" font-family="Times New Roman,serif" font-size="9.00">As the Keeper of I/O&#45;Specific Knowledge consider me your guide...</text>
</g>
<!-- greeting&#45;&gt;pre&#45;io -->
<g id="edge1" class="edge"><title>greeting&#45;&gt;pre&#45;io</title>
<path fill="none" stroke="black" d="M312.168,-409C230.183,-409 130,-409 130,-409 130,-409 130,-361.353 130,-361.353"/>
<polygon fill="black" stroke="black" points="133.5,-361.353 130,-351.353 126.5,-361.353 133.5,-361.353"/>
</g>
<!-- ask&#45;attending -->
<g id="node3" class="node"><title>ask&#45;attending</title>
<path fill="#deebff" stroke="#deebff" d="M544,-351C544,-351 290,-351 290,-351 284,-351 278,-345 278,-339 278,-339 278,-318 278,-318 278,-312 284,-306 290,-306 290,-306 544,-306 544,-306 550,-306 556,-312 556,-318 556,-318 556,-339 556,-339 556,-345 550,-351 544,-351"/>
<text text-anchor="start" x="373" y="-336.8" font-family="Times New Roman,serif" font-weight="bold" font-size="14.00">Ask Attending</text>
<text text-anchor="start" x="286" y="-312.8" font-family="Times New Roman,serif" font-size="9.00">The festival&#39;s underaway right now. Are you one of the lucky attendees?</text>
</g>
<!-- greeting&#45;&gt;ask&#45;attending -->
<g id="edge2" class="edge"><title>greeting&#45;&gt;ask&#45;attending</title>
<path fill="none" stroke="black" d="M417,-386.937C417,-386.937 417,-361.223 417,-361.223"/>
<polygon fill="black" stroke="black" points="420.5,-361.223 417,-351.223 413.5,-361.223 420.5,-361.223"/>
</g>
<!-- post&#45;io -->
<g id="node4" class="node"><title>post&#45;io</title>
<path fill="#deebff" stroke="#deebff" d="M822,-351C822,-351 586,-351 586,-351 580,-351 574,-345 574,-339 574,-339 574,-318 574,-318 574,-312 580,-306 586,-306 586,-306 822,-306 822,-306 828,-306 834,-312 834,-318 834,-318 834,-339 834,-339 834,-345 828,-351 822,-351"/>
<text text-anchor="start" x="658.5" y="-336.8" font-family="Times New Roman,serif" font-weight="bold" font-size="14.00">Post I/O Menu</text>
<text text-anchor="start" x="582" y="-312.8" font-family="Times New Roman,serif" font-size="9.00">As the Keeper of I/O&#45;Specific Knowledge consider me your guide...</text>
</g>
<!-- greeting&#45;&gt;post&#45;io -->
<g id="edge3" class="edge"><title>greeting&#45;&gt;post&#45;io</title>
<path fill="none" stroke="black" d="M521.832,-409C603.817,-409 704,-409 704,-409 704,-409 704,-361.353 704,-361.353"/>
<polygon fill="black" stroke="black" points="707.5,-361.353 704,-351.353 700.5,-361.353 707.5,-361.353"/>
</g>
<!-- attending&#45;yes -->
<g id="node11" class="node"><title>attending&#45;yes</title>
<path fill="#ffebcc" stroke="#ffebcc" d="M396,-270C396,-270 366,-270 366,-270 360,-270 354,-264 354,-258 354,-258 354,-246 354,-246 354,-240 360,-234 366,-234 366,-234 396,-234 396,-234 402,-234 408,-240 408,-246 408,-246 408,-258 408,-258 408,-264 402,-270 396,-270"/>
<text text-anchor="start" x="374.5" y="-249.8" font-family="Times New Roman,serif" font-size="9.00">yes</text>
</g>
<!-- ask&#45;attending&#45;&gt;attending&#45;yes -->
<g id="edge4" class="edge"><title>ask&#45;attending&#45;&gt;attending&#45;yes</title>
<path fill="none" stroke="black" d="M381,-305.961C381,-305.961 381,-280.02 381,-280.02"/>
<polygon fill="black" stroke="black" points="384.5,-280.02 381,-270.02 377.5,-280.02 384.5,-280.02"/>
</g>
<!-- attending&#45;no -->
<g id="node12" class="node"><title>attending&#45;no</title>
<path fill="#ffebcc" stroke="#ffebcc" d="M572,-270C572,-270 542,-270 542,-270 536,-270 530,-264 530,-258 530,-258 530,-246 530,-246 530,-240 536,-234 542,-234 542,-234 572,-234 572,-234 578,-234 584,-240 584,-246 584,-246 584,-258 584,-258 584,-264 578,-270 572,-270"/>
<text text-anchor="start" x="552" y="-249.8" font-family="Times New Roman,serif" font-size="9.00">no</text>
</g>
<!-- ask&#45;attending&#45;&gt;attending&#45;no -->
<g id="edge5" class="edge"><title>ask&#45;attending&#45;&gt;attending&#45;no</title>
<path fill="none" stroke="black" d="M543,-305.961C543,-305.961 543,-280.02 543,-280.02"/>
<polygon fill="black" stroke="black" points="546.5,-280.02 543,-270.02 539.5,-280.02 546.5,-280.02"/>
</g>
<!-- attending&#45;menu -->
<g id="node5" class="node"><title>attending&#45;menu</title>
<path fill="#deebff" stroke="#deebff" d="M502.5,-198C502.5,-198 155.5,-198 155.5,-198 149.5,-198 143.5,-192 143.5,-186 143.5,-186 143.5,-165 143.5,-165 143.5,-159 149.5,-153 155.5,-153 155.5,-153 502.5,-153 502.5,-153 508.5,-153 514.5,-159 514.5,-165 514.5,-165 514.5,-186 514.5,-186 514.5,-192 508.5,-198 502.5,-198"/>
<text text-anchor="start" x="279.5" y="-183.8" font-family="Times New Roman,serif" font-weight="bold" font-size="14.00">Attending Menu</text>
<text text-anchor="start" x="151.5" y="-159.8" font-family="Times New Roman,serif" font-size="9.00">Congrats! As the Keeper of I/O&#45;Specific Knowledge consider me your guide ... What do you need?</text>
</g>
<!-- schedule -->
<g id="node13" class="node"><title>schedule</title>
<path fill="#ffebcc" stroke="#ffebcc" d="M229,-117C229,-117 199,-117 199,-117 193,-117 187,-111 187,-105 187,-105 187,-93 187,-93 187,-87 193,-81 199,-81 199,-81 229,-81 229,-81 235,-81 241,-87 241,-93 241,-93 241,-105 241,-105 241,-111 235,-117 229,-117"/>
<text text-anchor="start" x="198" y="-96.8" font-family="Times New Roman,serif" font-size="9.00">Schedule</text>
</g>
<!-- attending&#45;menu&#45;&gt;schedule -->
<g id="edge6" class="edge"><title>attending&#45;menu&#45;&gt;schedule</title>
<path fill="none" stroke="black" d="M214,-152.961C214,-152.961 214,-127.02 214,-127.02"/>
<polygon fill="black" stroke="black" points="217.5,-127.02 214,-117.02 210.5,-127.02 217.5,-127.02"/>
</g>
<!-- things&#45;to&#45;do -->
<g id="node14" class="node"><title>things&#45;to&#45;do</title>
<path fill="#ffebcc" stroke="#ffebcc" d="M348,-117C348,-117 310,-117 310,-117 304,-117 298,-111 298,-105 298,-105 298,-93 298,-93 298,-87 304,-81 310,-81 310,-81 348,-81 348,-81 354,-81 360,-87 360,-93 360,-93 360,-105 360,-105 360,-111 354,-117 348,-117"/>
<text text-anchor="start" x="306" y="-96.8" font-family="Times New Roman,serif" font-size="9.00">Things to do</text>
</g>
<!-- attending&#45;menu&#45;&gt;things&#45;to&#45;do -->
<g id="edge7" class="edge"><title>attending&#45;menu&#45;&gt;things&#45;to&#45;do</title>
<path fill="none" stroke="black" d="M329,-152.961C329,-152.961 329,-127.02 329,-127.02"/>
<polygon fill="black" stroke="black" points="332.5,-127.02 329,-117.02 325.5,-127.02 332.5,-127.02"/>
</g>
<!-- directions -->
<g id="node15" class="node"><title>directions</title>
<path fill="#ffebcc" stroke="#ffebcc" d="M481,-117C481,-117 451,-117 451,-117 445,-117 439,-111 439,-105 439,-105 439,-93 439,-93 439,-87 445,-81 451,-81 451,-81 481,-81 481,-81 487,-81 493,-87 493,-93 493,-93 493,-105 493,-105 493,-111 487,-117 481,-117"/>
<text text-anchor="start" x="447" y="-96.8" font-family="Times New Roman,serif" font-size="9.00">Directions</text>
</g>
<!-- attending&#45;menu&#45;&gt;directions -->
<g id="edge8" class="edge"><title>attending&#45;menu&#45;&gt;directions</title>
<path fill="none" stroke="black" d="M466,-152.961C466,-152.961 466,-127.02 466,-127.02"/>
<polygon fill="black" stroke="black" points="469.5,-127.02 466,-117.02 462.5,-127.02 469.5,-127.02"/>
</g>
<!-- not&#45;attending&#45;menu -->
<g id="node6" class="node"><title>not&#45;attending&#45;menu</title>
<path fill="#deebff" stroke="#deebff" d="M675,-198C675,-198 545,-198 545,-198 539,-198 533,-192 533,-186 533,-186 533,-165 533,-165 533,-159 539,-153 545,-153 545,-153 675,-153 675,-153 681,-153 687,-159 687,-165 687,-165 687,-186 687,-186 687,-192 681,-198 675,-198"/>
<text text-anchor="start" x="547.5" y="-183.8" font-family="Times New Roman,serif" font-weight="bold" font-size="14.00">Not Attending Menu</text>
<text text-anchor="start" x="541" y="-159.8" font-family="Times New Roman,serif" font-size="9.00">Then I can help you stay plugged In...</text>
</g>
<!-- check&#45;app&#45;linked -->
<g id="node7" class="node"><title>check&#45;app&#45;linked</title>
<path fill="#deebff" stroke="#deebff" d="M228.5,-40.5C228.5,-40.5 121.5,-40.5 121.5,-40.5 115.5,-40.5 109.5,-34.5 109.5,-28.5 109.5,-28.5 109.5,-16.5 109.5,-16.5 109.5,-10.5 115.5,-4.5 121.5,-4.5 121.5,-4.5 228.5,-4.5 228.5,-4.5 234.5,-4.5 240.5,-10.5 240.5,-16.5 240.5,-16.5 240.5,-28.5 240.5,-28.5 240.5,-34.5 234.5,-40.5 228.5,-40.5"/>
<text text-anchor="start" x="117.5" y="-19.8" font-family="Times New Roman,serif" font-weight="bold" font-size="14.00">Check App Linked</text>
</g>
<!-- things&#45;to&#45;do&#45;menu -->
<g id="node8" class="node"><title>things&#45;to&#45;do&#45;menu</title>
<path fill="#deebff" stroke="#deebff" d="M387,-45C387,-45 271,-45 271,-45 265,-45 259,-39 259,-33 259,-33 259,-12 259,-12 259,-6 265,-0 271,-0 271,-0 387,-0 387,-0 393,-0 399,-6 399,-12 399,-12 399,-33 399,-33 399,-39 393,-45 387,-45"/>
<text text-anchor="start" x="267" y="-30.8" font-family="Times New Roman,serif" font-weight="bold" font-size="14.00">Things To Do Menu</text>
<text text-anchor="start" x="273" y="-6.8" font-family="Times New Roman,serif" font-size="9.00">Sure. Do you want to ... or ... ?</text>
</g>
<!-- ask&#45;directions -->
<g id="node9" class="node"><title>ask&#45;directions</title>
<path fill="#deebff" stroke="#deebff" d="M624.5,-45C624.5,-45 429.5,-45 429.5,-45 423.5,-45 417.5,-39 417.5,-33 417.5,-33 417.5,-12 417.5,-12 417.5,-6 423.5,-0 429.5,-0 429.5,-0 624.5,-0 624.5,-0 630.5,-0 636.5,-6 636.5,-12 636.5,-12 636.5,-33 636.5,-33 636.5,-39 630.5,-45 624.5,-45"/>
<text text-anchor="start" x="481.5" y="-30.8" font-family="Times New Roman,serif" font-weight="bold" font-size="14.00">Ask Directions</text>
<text text-anchor="start" x="425.5" y="-6.8" font-family="Times New Roman,serif" font-size="9.00">Your time is too important to waste wandering around...</text>
</g>
<!-- welcome -->
<g id="node10" class="node"><title>welcome</title>
<path fill="#ffebcc" stroke="#ffebcc" d="M499,-513C499,-513 335,-513 335,-513 329,-513 323,-507 323,-501 323,-501 323,-480 323,-480 323,-474 329,-468 335,-468 335,-468 499,-468 499,-468 505,-468 511,-474 511,-480 511,-480 511,-501 511,-501 511,-507 505,-513 499,-513"/>
<text text-anchor="start" x="331" y="-498.8" font-family="Times New Roman,serif" font-weight="bold" font-size="14.00">! Standard Welcome Event !</text>
<text text-anchor="start" x="413.5" y="-474.8" font-family="Times New Roman,serif" font-size="9.00">...</text>
</g>
<!-- welcome&#45;&gt;greeting -->
<g id="edge9" class="edge"><title>welcome&#45;&gt;greeting</title>
<path fill="none" stroke="black" d="M417,-467.937C417,-467.937 417,-442.223 417,-442.223"/>
<polygon fill="black" stroke="black" points="420.5,-442.223 417,-432.223 413.5,-442.223 420.5,-442.223"/>
</g>
<!-- attending&#45;yes&#45;&gt;attending&#45;menu -->
<g id="edge10" class="edge"><title>attending&#45;yes&#45;&gt;attending&#45;menu</title>
<path fill="none" stroke="black" d="M381,-233.871C381,-233.871 381,-208.157 381,-208.157"/>
<polygon fill="black" stroke="black" points="384.5,-208.157 381,-198.157 377.5,-208.157 384.5,-208.157"/>
</g>
<!-- attending&#45;no&#45;&gt;not&#45;attending&#45;menu -->
<g id="edge11" class="edge"><title>attending&#45;no&#45;&gt;not&#45;attending&#45;menu</title>
<path fill="none" stroke="black" d="M558.5,-233.871C558.5,-233.871 558.5,-208.157 558.5,-208.157"/>
<polygon fill="black" stroke="black" points="562,-208.157 558.5,-198.157 555,-208.157 562,-208.157"/>
</g>
<!-- schedule&#45;&gt;check&#45;app&#45;linked -->
<g id="edge12" class="edge"><title>schedule&#45;&gt;check&#45;app&#45;linked</title>
<path fill="none" stroke="black" d="M213.75,-80.8706C213.75,-80.8706 213.75,-50.7644 213.75,-50.7644"/>
<polygon fill="black" stroke="black" points="217.25,-50.7644 213.75,-40.7644 210.25,-50.7644 217.25,-50.7644"/>
</g>
<!-- things&#45;to&#45;do&#45;&gt;things&#45;to&#45;do&#45;menu -->
<g id="edge13" class="edge"><title>things&#45;to&#45;do&#45;&gt;things&#45;to&#45;do&#45;menu</title>
<path fill="none" stroke="black" d="M329,-80.8706C329,-80.8706 329,-55.1565 329,-55.1565"/>
<polygon fill="black" stroke="black" points="332.5,-55.1565 329,-45.1565 325.5,-55.1566 332.5,-55.1565"/>
</g>
<!-- directions&#45;&gt;ask&#45;directions -->
<g id="edge14" class="edge"><title>directions&#45;&gt;ask&#45;directions</title>
<path fill="none" stroke="black" d="M466,-80.8706C466,-80.8706 466,-55.1565 466,-55.1565"/>
<polygon fill="black" stroke="black" points="469.5,-55.1565 466,-45.1565 462.5,-55.1566 469.5,-55.1565"/>
</g>
</g>
</svg>
